<svg width="152" height="44" viewBox="0 0 152 44" fill="none" xmlns="http://www.w3.org/2000/svg">
<g clip-path="url(#clip0)">
<path d="M12.0569 17.9958C10.8935 20.1172 10.2971 22.5024 10.3252 24.9211C10.3532 27.3399 11.0049 29.7106 12.2172 31.8045L17.8736 41.6204L19.2476 44L21.6406 42.6271L31.4534 36.9069C34.3404 35.2232 36.5332 32.5676 37.6392 29.4157C38.7452 26.2639 38.6921 22.8215 37.4895 19.7052C36.2868 16.5888 34.0131 14.002 31.0755 12.408C28.1379 10.814 24.7284 10.3169 21.4574 11.0057C21.6158 11.0746 21.7688 11.1549 21.9155 11.246C24.2094 12.5764 26.125 14.4706 27.4802 16.7488C28.9873 17.3424 30.2963 18.3487 31.2567 19.6522C32.2172 20.9557 32.7901 22.5034 32.9097 24.1176C33.0292 25.7319 32.6906 27.347 31.9328 28.7776C31.1749 30.2082 30.0284 31.3961 28.6252 32.2049L21.1941 36.4836L16.9919 29.0588C16.0759 27.4721 15.6928 25.6339 15.8988 23.8138C16.1049 21.9937 16.8893 20.2875 18.1369 18.9454C17.9963 18.8257 17.8427 18.722 17.6789 18.6365C16.055 17.7059 14.1286 17.455 12.3203 17.9386C12.2519 17.9708 12.1781 17.9902 12.1027 17.9958H12.0569Z" fill="#EE3A68"/>
<path d="M1.9006 17.7213C0.97263 19.3199 0.369455 21.0858 0.125633 22.9178C-0.11819 24.7497 0.00213259 26.6117 0.479706 28.3971C0.95728 30.1825 1.78272 31.8563 2.90874 33.3224C4.03476 34.7886 5.43923 36.0183 7.0417 36.9412L16.614 42.4784V42.3869L11.1179 32.9371L9.80117 32.2049C8.33237 31.3549 7.14863 30.089 6.39945 28.5672C5.65027 27.0454 5.36927 25.3358 5.59193 23.6545C5.81459 21.9732 6.53092 20.3956 7.65046 19.1208C8.76999 17.846 10.2425 16.9313 11.882 16.4923C13.5215 16.0532 15.2545 16.1094 16.8621 16.6539C18.4696 17.1983 19.8796 18.2065 20.914 19.5512C21.9484 20.8958 22.5608 22.5166 22.6738 24.2088C22.7868 25.901 22.3954 27.5887 21.549 29.0588L20.1406 31.4727L21.8238 34.4129L26.3351 31.8388C28.2088 28.6013 28.7185 24.7527 27.7523 21.1397C26.786 17.5267 24.4228 14.4452 21.1826 12.5731C17.9423 10.701 14.0905 10.1916 10.4745 11.1571C6.85839 12.1226 3.77428 14.4838 1.9006 17.7213V17.7213Z" fill="#BC295B"/>
<path fill-rule="evenodd" clip-rule="evenodd" d="M24.5148 1.40718C23.7584 1.40718 23.019 1.63129 22.3901 2.05116C21.7612 2.47103 21.271 3.0678 20.9815 3.76602C20.6921 4.46424 20.6164 5.23253 20.7639 5.97376C20.9115 6.71498 21.2757 7.39584 21.8106 7.93023C22.3454 8.46462 23.0268 8.82855 23.7687 8.97599C24.5105 9.12343 25.2795 9.04775 25.9783 8.75854C26.6771 8.46933 27.2744 7.97957 27.6946 7.35119C28.1148 6.72281 28.3391 5.98404 28.3391 5.2283C28.3406 4.72608 28.2427 4.22851 28.0511 3.76423C27.8594 3.29995 27.5778 2.87812 27.2223 2.52299C26.8669 2.16787 26.4447 1.88647 25.9801 1.69497C25.5154 1.50348 25.0174 1.40567 24.5148 1.40718V1.40718Z" fill="#EE3A68"/>
<path fill-rule="evenodd" clip-rule="evenodd" d="M14.5643 1.44507e-05C13.6751 -0.00224043 12.8053 0.25944 12.0652 0.751861C11.325 1.24428 10.748 1.94525 10.4072 2.76585C10.0664 3.58645 9.97723 4.48969 10.151 5.36101C10.3247 6.23232 10.7536 7.03243 11.3832 7.65985C12.0127 8.28727 12.8146 8.71371 13.6871 8.88509C14.5596 9.05647 15.4633 8.96506 16.2838 8.62245C17.1042 8.27984 17.8043 7.70148 18.2952 6.96073C18.7861 6.21998 19.0458 5.35022 19.0413 4.46179C19.0382 3.27741 18.5652 2.14256 17.726 1.30614C16.8867 0.469724 15.7497 1.05771e-05 14.5643 1.44507e-05V1.44507e-05Z" fill="#BC295B"/>
<path d="M49.6134 12.8133C49.1832 12.8243 48.7561 12.8896 48.3424 13.0078C48.2132 13.0517 48.0962 13.1253 48.0007 13.2226C47.9052 13.32 47.834 13.4385 47.7928 13.5684C47.675 13.9927 47.6248 14.4328 47.6439 14.8726V26.9766C47.6211 27.4279 47.6714 27.8799 47.7928 28.3152C47.831 28.4442 47.9015 28.5613 47.9977 28.6554C48.0939 28.7495 48.2125 28.8175 48.3424 28.8529C48.7566 28.9628 49.1852 29.0091 49.6134 28.9902H51.3881C52.1743 29.0336 52.9595 28.8885 53.6781 28.5669C54.215 28.2646 54.6224 27.7762 54.8231 27.194C55.1232 26.3066 55.3042 25.3833 55.3613 24.4483H55.9224C55.8766 24.9517 55.8536 25.6152 55.8536 26.4389C55.8536 27.3656 55.8536 28.3952 56.0139 29.5507C54.9147 29.505 53.0598 29.4821 50.4492 29.4821C47.3233 29.4821 44.9761 29.4821 43.3845 29.5507V29.0702C43.8145 29.0572 44.2413 28.9919 44.6555 28.8757C44.7825 28.8304 44.8973 28.7561 44.9907 28.6588C45.0841 28.5616 45.1535 28.4439 45.1936 28.3152C45.315 27.8799 45.3653 27.4279 45.3425 26.9766V14.8726C45.3653 14.4214 45.315 13.9694 45.1936 13.5341C45.1535 13.4054 45.0841 13.2877 44.9907 13.1904C44.8973 13.0931 44.7825 13.0189 44.6555 12.9735C44.2376 12.8565 43.8069 12.7912 43.373 12.779V12.2985C44.0601 12.2985 45.0906 12.3672 46.4875 12.3672C47.8844 12.3672 48.7775 12.3672 49.579 12.2985L49.6134 12.8133Z" fill="#363636"/>
<path d="M68.4599 26.9194C68.4007 27.5106 68.5462 28.1042 68.8721 28.6012C69.0561 28.7897 69.2805 28.9339 69.5284 29.0231C69.7764 29.1123 70.0413 29.1441 70.3034 29.116V29.6194C69.7996 29.5736 69.2957 29.5508 68.7919 29.5508C67.9354 29.5273 67.0808 29.6432 66.2615 29.894V26.9766C65.9587 27.868 65.3816 28.6409 64.6127 29.1847C63.9342 29.6377 63.1386 29.8841 62.3226 29.894C61.8593 29.9263 61.3944 29.8604 60.9583 29.7007C60.5222 29.541 60.1249 29.2911 59.7922 28.9673C59.4803 28.6158 59.2636 28.1904 59.1624 27.7317C59.0307 27.092 58.9692 26.4399 58.9792 25.7868V19.6776C59.0261 19.1018 58.8812 18.5266 58.567 18.0416C58.3805 17.8573 58.1554 17.7165 57.9079 17.6294C57.6604 17.5424 57.3967 17.5112 57.1357 17.5383V17.0234C57.6395 17.0234 58.1434 17.1035 58.6472 17.1035C59.5037 17.127 60.3583 17.0111 61.1776 16.7603V26.3131C61.1689 26.8147 61.2034 27.3161 61.2807 27.8118C61.3487 28.1711 61.5291 28.4996 61.7959 28.7499C62.1446 29.0198 62.5814 29.1503 63.0211 29.116C63.6322 29.1181 64.2258 28.9124 64.7043 28.5326C65.2174 28.1059 65.6118 27.5543 65.8493 26.9309C66.141 26.2278 66.2852 25.4724 66.2729 24.7114V19.6776C66.3198 19.1018 66.1749 18.5266 65.8607 18.0416C65.6742 17.8573 65.4491 17.7165 65.2016 17.6294C64.9542 17.5424 64.6904 17.5112 64.4295 17.5383V17.0234C64.9333 17.0234 65.4371 17.1035 65.9409 17.1035C66.7974 17.127 67.6521 17.0111 68.4713 16.7603L68.4599 26.9194Z" fill="#363636"/>
<path d="M82.6695 17.0234V17.5154C82.3395 17.55 82.0338 17.7048 81.8107 17.9501C81.4932 18.3205 81.2485 18.7475 81.0894 19.2086L77.0933 29.6766H76.7154L72.2384 18.8997C72.0932 18.4688 71.8502 18.0772 71.5285 17.7556C71.3317 17.5924 71.0858 17.4998 70.8301 17.4925V16.9777C71.6659 17.0463 72.3873 17.0806 72.9712 17.0806C74.2231 17.0806 75.2765 17.0463 76.1315 16.9777V17.4925C75.689 17.4776 75.2464 17.5199 74.8147 17.6183C74.676 17.6694 74.5593 17.7667 74.4842 17.8939C74.409 18.021 74.3802 18.1702 74.4025 18.3162C74.4369 18.6869 74.5296 19.0498 74.6773 19.3916L77.6658 26.7821L80.3451 19.7577C80.498 19.3943 80.5871 19.0073 80.6085 18.6136C80.6213 18.4506 80.5885 18.2872 80.5137 18.1417C80.4389 17.9962 80.325 17.8744 80.1848 17.7899C79.7557 17.5843 79.2867 17.475 78.8108 17.4696V16.9777C79.6581 16.9777 80.3337 17.0577 80.8604 17.0577C81.5359 17.1607 82.1542 17.0692 82.6695 17.0234Z" fill="#363636"/>
<path d="M95.3104 22C95.6806 22.373 95.9726 22.8161 96.1692 23.3033C96.3658 23.7905 96.4631 24.312 96.4554 24.8373C96.4723 25.7047 96.229 26.5574 95.7569 27.2855C95.2591 28.0281 94.5546 28.6088 93.7303 28.9558C92.7473 29.3764 91.6848 29.5793 90.6158 29.5507H89.4708C88.4289 29.5507 87.4098 29.5507 86.4022 29.5507C85.0626 29.5507 84.1122 29.5507 83.3794 29.6194V29.1389C83.8393 29.1102 84.2935 29.0218 84.7305 28.8757C84.8576 28.8304 84.9723 28.7561 85.0657 28.6588C85.1591 28.5616 85.2286 28.4439 85.2687 28.3152C85.39 27.8799 85.4403 27.4279 85.4175 26.9766V14.8726C85.4403 14.4214 85.39 13.9694 85.2687 13.5341C85.2286 13.4054 85.1591 13.2877 85.0657 13.1904C84.9723 13.0931 84.8576 13.0189 84.7305 12.9735C84.3126 12.8565 83.8819 12.7912 83.4481 12.779V12.2985C84.1351 12.2985 85.1198 12.3672 86.4137 12.3672H89.0472H90.0891C91.4411 12.2757 92.7845 12.6425 93.902 13.4082C94.3249 13.7362 94.6652 14.1583 94.8958 14.641C95.1264 15.1237 95.2409 15.6535 95.2302 16.1883C95.2369 17.1094 94.921 18.0038 94.3371 18.7166C93.5987 19.5583 92.6195 20.1533 91.5319 20.4212V20.4212C92.93 20.5215 94.257 21.0759 95.3104 22V22ZM88.3029 12.985C88.1783 13.0428 88.0677 13.1269 87.9787 13.2316C87.8897 13.3363 87.8246 13.459 87.7877 13.5913C87.6734 14.0084 87.6232 14.4404 87.6388 14.8726V20.3755H89.3105C89.8294 20.4326 90.3544 20.3636 90.8408 20.1743C91.3272 19.9851 91.7607 19.6812 92.1044 19.2886C92.6693 18.4367 92.9461 17.4263 92.8944 16.4056C92.9722 15.4304 92.6868 14.4607 92.0929 13.6828C91.7465 13.3562 91.3347 13.1068 90.8847 12.951C90.4346 12.7952 89.9567 12.7366 89.4823 12.779C89.079 12.7638 88.6771 12.834 88.3029 12.985V12.985ZM94.028 24.7343C94.0657 24.2034 93.9937 23.6704 93.8165 23.1685C93.6392 22.6666 93.3604 22.2066 92.9975 21.817C92.0658 21.0766 90.8859 20.7204 89.6998 20.8217H87.6388V26.9766C87.6176 27.409 87.6679 27.8419 87.7877 28.258C87.8254 28.3857 87.8913 28.5033 87.9804 28.6023C88.0696 28.7013 88.1798 28.7791 88.3029 28.83C88.6705 28.9573 89.0595 29.0117 89.4479 28.9902C92.4937 28.9902 94.0165 27.5715 94.0165 24.7343H94.028Z" fill="#363636"/>
<path d="M109.303 26.9194C109.243 27.5106 109.389 28.1042 109.715 28.6012C109.901 28.7906 110.127 28.9353 110.377 29.0245C110.627 29.1137 110.894 29.145 111.158 29.116V29.6194C110.654 29.5736 110.15 29.5507 109.646 29.5507C108.79 29.5263 107.935 29.6422 107.116 29.894V26.9766C106.809 27.8688 106.228 28.6415 105.455 29.1847C104.778 29.6407 103.982 29.8874 103.165 29.894C102.702 29.9248 102.238 29.8583 101.802 29.6987C101.366 29.5391 100.968 29.2899 100.635 28.9673C100.322 28.6178 100.109 28.1912 100.017 27.7317C99.8792 27.0929 99.8177 26.4401 99.8334 25.7868V19.6776C99.8803 19.1018 99.7354 18.5266 99.4212 18.0416C99.233 17.8563 99.0059 17.7151 98.7565 17.628C98.507 17.541 98.2413 17.5103 97.9785 17.5383V17.0234C98.4823 17.0234 98.9861 17.1035 99.4899 17.1035C100.346 17.127 101.201 17.0111 102.02 16.7603V26.3131C102.009 26.8152 102.047 27.3172 102.135 27.8118C102.194 28.1716 102.371 28.5015 102.639 28.7499C102.992 29.0196 103.432 29.1499 103.875 29.116C104.483 29.1183 105.073 28.9123 105.547 28.5325C106.059 28.1052 106.454 27.5538 106.692 26.9309C106.98 26.2266 107.124 25.472 107.116 24.7114V19.6776C107.163 19.1018 107.018 18.5266 106.703 18.0416C106.515 17.857 106.288 17.7162 106.038 17.6292C105.789 17.5422 105.524 17.5111 105.261 17.5383V17.0234C105.765 17.0234 106.268 17.1035 106.772 17.1035C107.629 17.127 108.483 17.0111 109.303 16.7603V26.9194Z" fill="#363636"/>
<path d="M123.878 28.5325C124.066 28.7192 124.293 28.8614 124.542 28.9485C124.792 29.0356 125.058 29.0655 125.321 29.0359V29.5507C124.817 29.505 124.313 29.4821 123.81 29.4821C122.954 29.4611 122.1 29.5731 121.279 29.8139V27.6516C121.028 28.3336 120.567 28.9185 119.962 29.3219C119.32 29.7183 118.576 29.9173 117.821 29.8939C117.121 29.925 116.423 29.7887 115.786 29.4962C115.148 29.2037 114.59 28.7635 114.157 28.2122C113.182 26.7693 112.723 25.0403 112.852 23.3042C112.817 22.0579 113.072 20.8206 113.596 19.6891C114.013 18.7804 114.685 18.0124 115.531 17.4782C116.376 16.9441 117.359 16.6668 118.359 16.6802C118.943 16.6772 119.521 16.7981 120.054 17.0349C120.559 17.2707 120.985 17.6483 121.279 18.1217V13.3968C121.326 12.8246 121.181 12.253 120.867 11.7723C120.681 11.5829 120.455 11.4381 120.205 11.3489C119.955 11.2598 119.688 11.2285 119.424 11.2574V10.7541C119.951 10.7998 120.455 10.8227 120.936 10.8227C121.792 10.8462 122.647 10.7302 123.466 10.4795V26.8965C123.418 27.4725 123.563 28.0482 123.878 28.5325ZM120.226 28.4296C120.768 27.8606 121.131 27.1442 121.268 26.3703V19.117C121.097 18.5401 120.733 18.0392 120.237 17.6978C119.741 17.3564 119.143 17.1951 118.543 17.2408C118.033 17.2494 117.536 17.3981 117.106 17.6705C116.676 17.943 116.329 18.3287 116.104 18.7853C115.406 20.1843 115.097 21.7452 115.211 23.3042C115.097 24.8117 115.381 26.3226 116.035 27.6859C116.268 28.1409 116.625 28.5208 117.064 28.7819C117.504 29.043 118.008 29.1747 118.52 29.1618C118.839 29.1601 119.154 29.0944 119.447 28.9686C119.74 28.8429 120.005 28.6595 120.226 28.4296V28.4296Z" fill="#363636"/>
<path d="M138.031 28.5325C138.216 28.719 138.441 28.8611 138.688 28.9483C138.936 29.0355 139.201 29.0654 139.462 29.0359V29.5507C138.958 29.505 138.454 29.4821 137.95 29.4821C137.095 29.4611 136.241 29.5731 135.42 29.8139V27.6516C135.169 28.3336 134.708 28.9185 134.103 29.3219C133.461 29.7183 132.717 29.9173 131.962 29.8939C131.262 29.9241 130.564 29.7873 129.927 29.4949C129.29 29.2025 128.731 28.7628 128.298 28.2122C127.322 26.7701 126.866 25.0395 127.004 23.3042C126.967 22.0589 127.217 20.8216 127.737 19.6891C128.171 18.7496 128.866 17.9552 129.741 17.401C130.573 16.898 131.528 16.6366 132.5 16.6459C133.084 16.6429 133.661 16.7638 134.195 17.0006C134.7 17.2364 135.126 17.614 135.42 18.0874V13.3968C135.467 12.8246 135.322 12.253 135.008 11.7723C134.824 11.5838 134.599 11.4395 134.351 11.3503C134.104 11.2612 133.839 11.2294 133.577 11.2574V10.7541C134.092 10.7541 134.596 10.8227 135.077 10.8227C135.937 10.8454 136.795 10.7295 137.618 10.4795V26.8966C137.57 27.4725 137.715 28.0482 138.031 28.5325V28.5325ZM134.378 28.4296C134.925 27.8634 135.288 27.1458 135.42 26.3703V19.117C135.251 18.539 134.887 18.0368 134.391 17.6951C133.895 17.3534 133.296 17.1929 132.695 17.2408C132.186 17.2494 131.688 17.3981 131.258 17.6705C130.828 17.943 130.481 18.3287 130.256 18.7853C129.563 20.1861 129.255 21.7455 129.363 23.3042C129.255 24.8114 129.539 26.3208 130.187 27.6859C130.42 28.1409 130.777 28.5208 131.217 28.7819C131.656 29.043 132.161 29.1747 132.672 29.1618C132.991 29.1601 133.306 29.0944 133.599 28.9686C133.892 28.8429 134.157 28.6595 134.378 28.4296V28.4296Z" fill="#363636"/>
<path d="M152 17.0234V17.5154C151.67 17.55 151.364 17.7048 151.141 17.9501C150.82 18.3177 150.575 18.7455 150.42 19.2086L146.424 29.6766L145.599 31.7931C145.387 32.4326 145.026 33.0129 144.546 33.4862C144.3 33.7176 144.001 33.8863 143.676 33.9782C143.345 34.0772 143.002 34.1273 142.657 34.1269C142.242 34.1296 141.839 33.9925 141.512 33.7379C141.358 33.6055 141.237 33.4397 141.158 33.2533C141.079 33.0669 141.043 32.8648 141.054 32.6625C141.046 32.4912 141.072 32.32 141.131 32.159C141.19 31.9979 141.281 31.8502 141.397 31.7244C141.657 31.5165 141.98 31.4032 142.313 31.4032C142.646 31.4032 142.969 31.5165 143.229 31.7244C143.348 31.8273 143.442 31.956 143.504 32.1008C143.565 32.2456 143.593 32.4025 143.584 32.5596C143.607 32.7942 143.556 33.03 143.439 33.2348C143.322 33.4396 143.145 33.6033 142.932 33.7036H143.069C143.962 33.7036 144.661 33.0744 145.141 31.8045L146 29.5965L141.592 18.9683C141.418 18.5235 141.135 18.1299 140.768 17.8243C140.518 17.6618 140.229 17.5707 139.932 17.5611V17.0463C140.725 17.1533 141.524 17.203 142.325 17.195C143.126 17.195 144.191 17.195 145.485 17.0463V17.5611C145.052 17.5399 144.619 17.5901 144.203 17.7098C144.067 17.7646 143.954 17.8632 143.882 17.9897C143.809 18.1162 143.781 18.2634 143.802 18.4077C143.826 18.8048 143.927 19.1933 144.099 19.5518L147.019 26.805L149.721 19.7806C149.867 19.4149 149.956 19.0291 149.985 18.6365C149.994 18.4712 149.958 18.3065 149.881 18.1596C149.805 18.0128 149.69 17.889 149.55 17.8014C149.117 17.5926 148.645 17.4795 148.164 17.4696V16.9777C149.023 16.9777 149.699 17.0577 150.202 17.0577C150.866 17.1607 151.485 17.0692 152 17.0234Z" fill="#363636"/>
</g>
<defs>
<clipPath id="clip0">
<rect width="152" height="44" fill="white"/>
</clipPath>
</defs>
</svg>
