<svg width="108" height="24" viewBox="0 0 108 24" fill="none" xmlns="http://www.w3.org/2000/svg">
<path d="M6.46394 2.488C5.88794 2.52 5.46394 2.584 5.19194 2.68C4.93594 2.776 4.75994 2.96 4.66394 3.232C4.56794 3.504 4.51994 3.944 4.51994 4.552V16.456C4.51994 17.064 4.56794 17.504 4.66394 17.776C4.75994 18.048 4.93594 18.232 5.19194 18.328C5.46394 18.408 5.88794 18.448 6.46394 18.448H8.21594C9.20794 18.448 9.95994 18.312 10.4719 18.04C10.9999 17.752 11.3839 17.296 11.6239 16.672C11.8639 16.048 12.0399 15.144 12.1519 13.96H12.7039C12.6559 14.456 12.6319 15.112 12.6319 15.928C12.6319 16.84 12.6879 17.864 12.7999 19C11.7119 18.952 9.87994 18.928 7.30394 18.928C4.23194 18.928 1.91194 18.952 0.343938 19V18.52C0.919938 18.488 1.33594 18.424 1.59194 18.328C1.86394 18.232 2.04794 18.048 2.14394 17.776C2.23994 17.504 2.28794 17.064 2.28794 16.456V4.552C2.28794 3.944 2.23994 3.504 2.14394 3.232C2.04794 2.96 1.86394 2.776 1.59194 2.68C1.33594 2.584 0.919938 2.52 0.343938 2.488V2.008C1.01594 2.056 2.03994 2.08 3.41594 2.08C4.69594 2.08 5.71194 2.056 6.46394 2.008V2.488ZM25.0373 16.408C25.0373 17.144 25.1733 17.68 25.4453 18.016C25.7173 18.352 26.1893 18.52 26.8613 18.52V19.024C26.3653 18.976 25.8693 18.952 25.3733 18.952C24.3653 18.952 23.5333 19.064 22.8773 19.288V16.456C22.4933 17.448 21.9493 18.176 21.2453 18.64C20.5413 19.104 19.7733 19.336 18.9413 19.336C17.8533 19.336 17.0213 19.032 16.4453 18.424C16.1573 18.104 15.9493 17.696 15.8213 17.2C15.7093 16.704 15.6533 16.064 15.6533 15.28V9.256C15.6533 8.52 15.5173 7.984 15.2453 7.648C14.9733 7.312 14.5013 7.144 13.8293 7.144V6.64C14.3253 6.688 14.8213 6.712 15.3173 6.712C16.3253 6.712 17.1573 6.6 17.8133 6.376V15.808C17.8133 16.416 17.8453 16.912 17.9093 17.296C17.9893 17.664 18.1573 17.968 18.4133 18.208C18.6853 18.448 19.0933 18.568 19.6373 18.568C20.2453 18.568 20.7973 18.376 21.2933 17.992C21.7893 17.608 22.1733 17.088 22.4453 16.432C22.7333 15.76 22.8773 15.024 22.8773 14.224V9.256C22.8773 8.52 22.7413 7.984 22.4693 7.648C22.1973 7.312 21.7253 7.144 21.0533 7.144V6.64C21.5493 6.688 22.0453 6.712 22.5413 6.712C23.5493 6.712 24.3813 6.6 25.0373 6.376V16.408ZM37.2306 6.712C37.9346 6.712 38.5426 6.688 39.0546 6.64V7.12C38.7346 7.152 38.4466 7.296 38.1906 7.552C37.9506 7.808 37.7186 8.224 37.4946 8.8L33.5586 19.12H33.1506L28.7346 8.488C28.4946 7.944 28.2626 7.584 28.0386 7.408C27.8146 7.232 27.5826 7.144 27.3426 7.144V6.64C28.1746 6.704 28.8786 6.736 29.4546 6.736C30.6866 6.736 31.7266 6.704 32.5746 6.64V7.144C31.9826 7.144 31.5506 7.192 31.2786 7.288C31.0066 7.368 30.8706 7.592 30.8706 7.96C30.8706 8.184 30.9586 8.536 31.1346 9.016L34.0866 16.312L36.7266 9.376C36.9026 8.896 36.9906 8.52 36.9906 8.248C36.9906 7.88 36.8466 7.616 36.5586 7.456C36.2866 7.28 35.8386 7.168 35.2146 7.12V6.64C36.0466 6.688 36.7186 6.712 37.2306 6.712ZM47.7573 10.024C49.5173 10.264 50.7733 10.776 51.5253 11.56C52.2773 12.328 52.6533 13.256 52.6533 14.344C52.6533 15.256 52.4213 16.064 51.9573 16.768C51.4933 17.472 50.8293 18.024 49.9653 18.424C49.1013 18.808 48.0773 19 46.8933 19C46.4613 19 46.0933 18.992 45.7893 18.976C44.7653 18.944 43.7573 18.928 42.7653 18.928C41.4533 18.928 40.4613 18.952 39.7893 19V18.52C40.3653 18.488 40.7813 18.424 41.0373 18.328C41.3093 18.232 41.4933 18.048 41.5893 17.776C41.6853 17.504 41.7333 17.064 41.7333 16.456V4.552C41.7333 3.944 41.6853 3.504 41.5893 3.232C41.4933 2.96 41.3093 2.776 41.0373 2.68C40.7813 2.584 40.3653 2.52 39.7893 2.488V2.008C40.4613 2.056 41.4373 2.08 42.7173 2.08L45.3093 2.056C45.6133 2.04 45.9573 2.032 46.3413 2.032C47.9733 2.032 49.2213 2.376 50.0853 3.064C50.9653 3.752 51.4053 4.664 51.4053 5.8C51.4053 6.728 51.1093 7.56 50.5173 8.296C49.9413 9.032 49.0213 9.592 47.7573 9.976V10.024ZM45.7413 2.488C45.2453 2.488 44.8693 2.544 44.6133 2.656C44.3733 2.768 44.2053 2.968 44.1093 3.256C44.0133 3.544 43.9653 3.976 43.9653 4.552V9.976H45.5733C46.8853 9.976 47.7973 9.624 48.3093 8.92C48.8373 8.2 49.1013 7.248 49.1013 6.064C49.1013 4.864 48.8373 3.968 48.3093 3.376C47.7813 2.784 46.9253 2.488 45.7413 2.488ZM45.7653 18.448C48.7573 18.448 50.2533 17.048 50.2533 14.248C50.2533 12.984 49.9093 12.024 49.2213 11.368C48.5493 10.712 47.4693 10.384 45.9813 10.384H43.9653V16.456C43.9653 17.032 44.0133 17.456 44.1093 17.728C44.2053 18 44.3733 18.192 44.6133 18.304C44.8693 18.4 45.2533 18.448 45.7653 18.448ZM65.3264 16.408C65.3264 17.144 65.4624 17.68 65.7344 18.016C66.0064 18.352 66.4784 18.52 67.1504 18.52V19.024C66.6544 18.976 66.1584 18.952 65.6624 18.952C64.6544 18.952 63.8224 19.064 63.1664 19.288V16.456C62.7824 17.448 62.2384 18.176 61.5344 18.64C60.8304 19.104 60.0624 19.336 59.2304 19.336C58.1424 19.336 57.3104 19.032 56.7344 18.424C56.4464 18.104 56.2384 17.696 56.1104 17.2C55.9984 16.704 55.9424 16.064 55.9424 15.28V9.256C55.9424 8.52 55.8064 7.984 55.5344 7.648C55.2624 7.312 54.7904 7.144 54.1184 7.144V6.64C54.6144 6.688 55.1104 6.712 55.6064 6.712C56.6144 6.712 57.4464 6.6 58.1024 6.376V15.808C58.1024 16.416 58.1344 16.912 58.1984 17.296C58.2784 17.664 58.4464 17.968 58.7024 18.208C58.9744 18.448 59.3824 18.568 59.9264 18.568C60.5344 18.568 61.0864 18.376 61.5824 17.992C62.0784 17.608 62.4624 17.088 62.7344 16.432C63.0224 15.76 63.1664 15.024 63.1664 14.224V9.256C63.1664 8.52 63.0304 7.984 62.7584 7.648C62.4864 7.312 62.0144 7.144 61.3424 7.144V6.64C61.8384 6.688 62.3344 6.712 62.8304 6.712C63.8384 6.712 64.6704 6.6 65.3264 6.376V16.408ZM79.2957 16.384C79.2957 17.12 79.4317 17.656 79.7037 17.992C79.9757 18.328 80.4477 18.496 81.1197 18.496V19C80.6237 18.952 80.1277 18.928 79.6317 18.928C78.6237 18.928 77.7917 19.04 77.1357 19.264V17.128C76.8477 17.848 76.4157 18.4 75.8397 18.784C75.2637 19.152 74.5597 19.336 73.7277 19.336C72.1917 19.336 70.9837 18.784 70.1037 17.68C69.2397 16.576 68.8157 14.96 68.8317 12.832C68.8317 11.44 69.0717 10.256 69.5517 9.28C70.0477 8.288 70.7037 7.544 71.5197 7.048C72.3517 6.552 73.2637 6.304 74.2557 6.304C74.8637 6.304 75.4157 6.424 75.9117 6.664C76.4237 6.888 76.8317 7.24 77.1357 7.72V3.064C77.1357 2.328 76.9997 1.792 76.7277 1.456C76.4557 1.12 75.9837 0.951999 75.3117 0.951999V0.447999C75.8237 0.495999 76.3197 0.519999 76.7997 0.519999C77.8077 0.519999 78.6397 0.407999 79.2957 0.183999V16.384ZM74.4237 18.616C75.0477 18.616 75.6077 18.376 76.1037 17.896C76.5997 17.416 76.9437 16.736 77.1357 15.856V8.704C76.7037 7.472 75.8077 6.856 74.4477 6.856C73.4557 6.856 72.6557 7.368 72.0477 8.392C71.4397 9.4 71.1437 10.88 71.1597 12.832C71.1437 14.752 71.4157 16.2 71.9757 17.176C72.5357 18.136 73.3517 18.616 74.4237 18.616ZM93.241 16.384C93.241 17.12 93.377 17.656 93.649 17.992C93.921 18.328 94.393 18.496 95.065 18.496V19C94.569 18.952 94.073 18.928 93.577 18.928C92.569 18.928 91.737 19.04 91.081 19.264V17.128C90.793 17.848 90.361 18.4 89.785 18.784C89.209 19.152 88.505 19.336 87.673 19.336C86.137 19.336 84.929 18.784 84.049 17.68C83.185 16.576 82.761 14.96 82.777 12.832C82.777 11.44 83.017 10.256 83.497 9.28C83.993 8.288 84.649 7.544 85.465 7.048C86.297 6.552 87.209 6.304 88.201 6.304C88.809 6.304 89.361 6.424 89.857 6.664C90.369 6.888 90.777 7.24 91.081 7.72V3.064C91.081 2.328 90.945 1.792 90.673 1.456C90.401 1.12 89.929 0.951999 89.257 0.951999V0.447999C89.769 0.495999 90.265 0.519999 90.745 0.519999C91.753 0.519999 92.585 0.407999 93.241 0.183999V16.384ZM88.369 18.616C88.993 18.616 89.553 18.376 90.049 17.896C90.545 17.416 90.889 16.736 91.081 15.856V8.704C90.649 7.472 89.753 6.856 88.393 6.856C87.401 6.856 86.601 7.368 85.993 8.392C85.385 9.4 85.089 10.88 85.105 12.832C85.089 14.752 85.361 16.2 85.921 17.176C86.481 18.136 87.297 18.616 88.369 18.616ZM105.602 6.712C106.306 6.712 106.914 6.688 107.426 6.64V7.12C107.106 7.152 106.818 7.296 106.562 7.552C106.322 7.808 106.09 8.224 105.866 8.8L101.93 19.12L101.114 21.208C100.81 21.992 100.466 22.552 100.082 22.888C99.8423 23.112 99.5543 23.272 99.2183 23.368C98.8823 23.464 98.5463 23.512 98.2103 23.512C97.7303 23.512 97.3383 23.384 97.0343 23.128C96.7303 22.872 96.5783 22.52 96.5783 22.072C96.5783 21.688 96.6903 21.376 96.9143 21.136C97.1383 20.912 97.4503 20.8 97.8503 20.8C98.2023 20.8 98.4903 20.896 98.7143 21.088C98.9543 21.296 99.0743 21.576 99.0743 21.928C99.0743 22.408 98.8583 22.768 98.4263 23.008C98.4583 23.024 98.5063 23.032 98.5703 23.032C99.4503 23.032 100.13 22.408 100.61 21.16L101.45 18.976L97.1063 8.488C96.8343 7.944 96.5623 7.584 96.2903 7.408C96.0183 7.232 95.7463 7.144 95.4743 7.144V6.64C96.1623 6.736 96.9463 6.784 97.8263 6.784C98.6263 6.784 99.6663 6.736 100.946 6.64V7.144C100.37 7.144 99.9463 7.192 99.6743 7.288C99.4183 7.384 99.2903 7.616 99.2903 7.984C99.2903 8.32 99.3863 8.712 99.5783 9.16L102.458 16.312L105.122 9.376C105.298 8.896 105.386 8.528 105.386 8.272C105.386 7.904 105.242 7.632 104.954 7.456C104.666 7.28 104.21 7.168 103.586 7.12V6.64C104.434 6.688 105.106 6.712 105.602 6.712Z" fill="#FF3366"/>
</svg>
